<mxfile host="app.diagrams.net" modified="2022-03-22T14:48:27.100Z" agent="5.0 (Macintosh; Intel Mac OS X 10_15_7) AppleWebKit/537.36 (KHTML, like Gecko) Chrome/99.0.4844.74 Safari/537.36" etag="LAsXVJOH9nTre_0p5hi8" version="17.1.3" type="github">
  <diagram id="PWWtY9S2gEaRcw1G8tyx" name="第 1 页">
    <mxGraphModel dx="867" dy="475" grid="1" gridSize="10" guides="1" tooltips="1" connect="1" arrows="1" fold="1" page="1" pageScale="1" pageWidth="827" pageHeight="1169" math="0" shadow="0">
      <root>
        <mxCell id="0" />
        <mxCell id="1" parent="0" />
        <mxCell id="bnP5T64sd-qVlpsdxWSz-1" value="应用层&lt;br&gt;Application Layer" style="rounded=1;whiteSpace=wrap;html=1;fontSize=16;fillColor=#dae8fc;strokeColor=#6c8ebf;" parent="1" vertex="1">
          <mxGeometry x="240" y="160" width="240" height="60" as="geometry" />
        </mxCell>
        <mxCell id="bnP5T64sd-qVlpsdxWSz-2" value="传输层&lt;br&gt;Transport Layer" style="rounded=1;whiteSpace=wrap;html=1;fontSize=16;fillColor=#ffe6cc;strokeColor=#d79b00;" parent="1" vertex="1">
          <mxGeometry x="240" y="220" width="240" height="60" as="geometry" />
        </mxCell>
        <mxCell id="bnP5T64sd-qVlpsdxWSz-3" value="网络层&lt;br&gt;Internet Layer" style="rounded=1;whiteSpace=wrap;html=1;fontSize=16;fillColor=#d5e8d4;strokeColor=#82b366;" parent="1" vertex="1">
          <mxGeometry x="240" y="280" width="240" height="60" as="geometry" />
        </mxCell>
        <mxCell id="bnP5T64sd-qVlpsdxWSz-4" value="链接层&lt;br&gt;Link Layer" style="rounded=1;whiteSpace=wrap;html=1;fontSize=16;fillColor=#e1d5e7;strokeColor=#9673a6;" parent="1" vertex="1">
          <mxGeometry x="240" y="340" width="240" height="60" as="geometry" />
        </mxCell>
        <mxCell id="80g1xvLNq26NfAOAN099-1" value="TCP/IP 四层网络模型" style="text;html=1;align=center;verticalAlign=middle;resizable=0;points=[];autosize=1;strokeColor=none;fillColor=none;fontSize=16;" vertex="1" parent="1">
          <mxGeometry x="275" y="120" width="170" height="20" as="geometry" />
        </mxCell>
        <mxCell id="80g1xvLNq26NfAOAN099-3" value="HTTP、FTP、Telnet、DNS、SMTP等" style="rounded=1;whiteSpace=wrap;html=1;fontSize=16;fillColor=#dae8fc;strokeColor=#6c8ebf;" vertex="1" parent="1">
          <mxGeometry x="550" y="160" width="240" height="60" as="geometry" />
        </mxCell>
        <mxCell id="80g1xvLNq26NfAOAN099-4" value="TCP、UDP" style="rounded=1;whiteSpace=wrap;html=1;fontSize=16;fillColor=#ffe6cc;strokeColor=#d79b00;" vertex="1" parent="1">
          <mxGeometry x="550" y="220" width="240" height="60" as="geometry" />
        </mxCell>
        <mxCell id="80g1xvLNq26NfAOAN099-5" value="IP、ARP、ICMP" style="rounded=1;whiteSpace=wrap;html=1;fontSize=16;fillColor=#d5e8d4;strokeColor=#82b366;" vertex="1" parent="1">
          <mxGeometry x="550" y="280" width="240" height="60" as="geometry" />
        </mxCell>
        <mxCell id="80g1xvLNq26NfAOAN099-6" value="以太网" style="rounded=1;whiteSpace=wrap;html=1;fontSize=16;fillColor=#e1d5e7;strokeColor=#9673a6;" vertex="1" parent="1">
          <mxGeometry x="550" y="340" width="240" height="60" as="geometry" />
        </mxCell>
        <mxCell id="80g1xvLNq26NfAOAN099-7" value="TCP/IP 协议栈" style="text;html=1;align=center;verticalAlign=middle;resizable=0;points=[];autosize=1;strokeColor=none;fillColor=none;fontSize=16;" vertex="1" parent="1">
          <mxGeometry x="610" y="120" width="120" height="20" as="geometry" />
        </mxCell>
      </root>
    </mxGraphModel>
  </diagram>
</mxfile>
